HIERARCHY
ROOT Hips
{
  OFFSET 265.287 66.7526 -254.649
  CHANNELS 6 Xposition Yposition Zposition Zrotation Xrotation Yrotation
  JOINT LeftUpLeg
  {
    OFFSET 8.64259 1.95398 -2.38835
    CHANNELS 3 Zrotation Xrotation Yrotation
    JOINT LeftLeg
    {
      OFFSET 43.7702 0 0
      CHANNELS 3 Zrotation Xrotation Yrotation
      JOINT LeftFoot
      {
        OFFSET 40.6238 0 0
        CHANNELS 3 Zrotation Xrotation Yrotation
        JOINT LeftToeBase
        {
          OFFSET 12.7242 0 0
          CHANNELS 3 Zrotation Xrotation Yrotation
          End Site
          {
            OFFSET 0 0 0
          }
        }
      }
    }
  }
  JOINT RightUpLeg
  {
    OFFSET -8.2249 1.95398 -2.59336
    CHANNELS 3 Zrotation Xrotation Yrotation
    JOINT RightLeg
    {
      OFFSET 43.5653 0 0
      CHANNELS 3 Zrotation Xrotation Yrotation
      JOINT RightFoot
      {
        OFFSET 40.6238 0 0
        CHANNELS 3 Zrotation Xrotation Yrotation
        JOINT RightToeBase
        {
          OFFSET 12.7242 0 0
          CHANNELS 3 Zrotation Xrotation Yrotation
          End Site
          {
            OFFSET 0 0 0
          }
        }
      }
    }
  }
  JOINT Spine
  {
    OFFSET 0.165834 0.87714 6.61349
    CHANNELS 3 Zrotation Xrotation Yrotation
    JOINT Spine1
    {
      OFFSET 7.38963 1.71661e-005 0
      CHANNELS 3 Zrotation Xrotation Yrotation
      JOINT Spine2
      {
        OFFSET 11.9445 1.14441e-005 0
        CHANNELS 3 Zrotation Xrotation Yrotation
        JOINT Spine3
        {
          OFFSET 14.7254 4.19617e-005 0
          CHANNELS 3 Zrotation Xrotation Yrotation
          JOINT Spine4
          {
            OFFSET 10.9679 0 0
            CHANNELS 3 Zrotation Xrotation Yrotation
            JOINT RightShoulder
            {
              OFFSET 2.46616 -1.6653 3.69651
              CHANNELS 3 Zrotation Xrotation Yrotation
              JOINT RightArm
              {
                OFFSET 13.0012 0 0
                CHANNELS 3 Zrotation Xrotation Yrotation
                JOINT RightForeArm
                {
                  OFFSET 28.7848 1.52588e-005 0
                  CHANNELS 3 Zrotation Xrotation Yrotation
                  JOINT RightHand
                  {
                    OFFSET 26.5688 1.52588e-005 0
                    CHANNELS 3 Zrotation Xrotation Yrotation
                    End Site
                    {
                      OFFSET 0 0 0
                    }
                  }
                }
              }
            }
            JOINT LeftShoulder
            {
              OFFSET 2.38034 -1.29275 -3.7523
              CHANNELS 3 Zrotation Xrotation Yrotation
              JOINT LeftArm
              {
                OFFSET 16.3182 6.10351e-005 0
                CHANNELS 3 Zrotation Xrotation Yrotation
                JOINT LeftForeArm
                {
                  OFFSET 27.0901 0 0
                  CHANNELS 3 Zrotation Xrotation Yrotation
                  JOINT LeftHand
                  {
                    OFFSET 24.5451 1.52588e-005 0
                    CHANNELS 3 Zrotation Xrotation Yrotation
                    End Site
                    {
                      OFFSET 0 0 0
                    }
                  }
                }
              }
            }
            JOINT Neck
            {
              OFFSET 5.0226 -0.0266342 0
              CHANNELS 3 Zrotation Xrotation Yrotation
              JOINT Head
              {
                OFFSET 6.69364 2.86102e-005 0
                CHANNELS 3 Zrotation Xrotation Yrotation
                End Site
                {
                  OFFSET 0 0 0
                }
              }
            }
          }
        }
      }
    }
  }
}
MOTION
Frames:	9
Frame Time:	0.0416667
199.344 35.1489 -198.549 -122.806 -45.4631 -114.856 -113.526 72.7473 37.0589 -153.837 22.5439 1.29421 48.5552 -7.52168 61.9164 81.652 -22.8191 -14.9462 -125.949 73.3475 9.07527 -153.412 -24.2315 -3.4479 63.7623 3.78088 14.8187 52.2678 -2.26232 11.9727 0.444067 12.808 -90.5619 1.25951 0.673031 -1.07291 -10.4117 0.625157 -1.10149 -32.946 0.964352 -0.82105 -12.9333 0.964359 -0.821036 99.4874 -34.4257 -87.307 17.9922 -24.777 -47.603 -45.1177 -4.9991 -83.6645 -17.3606 -2.50402 11.6241 -86.1229 -34.3425 81.5619 -6.46743 21.1516 -66.9392 12.75 0.823771 -58.0099 11.6753 0.643143 1.57969 6.12628 1.27185 -2.46455 19.1844 3.66244 9.67183 
199.363 35.2084 -198.55 -122.9 -45.545 -114.946 -114.569 73.0048 38.1034 -154.067 22.6785 1.29586 49.8289 -6.33855 59.8482 79.2607 -21.7123 -15.2843 -126.551 73.8211 9.54925 -153.391 -24.4193 -3.48067 63.4306 3.63193 13.4766 52.8546 -2.24473 12.3717 0.42351 12.7738 -90.5211 1.32769 0.647192 -0.994956 -10.3435 0.602776 -1.02248 -32.878 0.916296 -0.754463 -12.8653 0.91629 -0.754476 99.4398 -35.0397 -87.3516 17.653 -25.1335 -47.3274 -44.7414 -4.71921 -83.883 -17.2091 -2.60801 12.4679 -85.9579 -33.6366 81.7157 -6.9384 21.5527 -66.4332 13.4805 1.13945 -58.1179 12.2093 0.591693 0.97748 6.31942 1.31764 -5.51662 18.5666 4.84835 12.6729 
199.53 35.5748 -198.719 -123.451 -45.6869 -115.037 -134.433 76.6223 59.1056 -155.101 25.7583 1.19226 63.4877 4.28253 39.7072 63.493 -12.7253 -7.23717 -130.016 72.8722 12.8764 -152.661 -23.3662 -3.52572 64.3087 4.10099 17.2616 52.7329 -2.3412 11.337 0.424031 12.8074 -90.5763 1.26048 0.627564 -1.10246 -10.4108 0.578438 -1.12901 -32.9446 0.929875 -0.8629 -12.932 0.929867 -0.862911 99.3946 -35.0933 -87.4336 17.7139 -25.0749 -47.1191 -44.0868 -4.71775 -83.6813 -17.9794 -2.60942 11.676 -85.9856 -33.6503 81.6675 -6.47964 21.8506 -66.6372 15.5528 2.46454 -57.9648 14.3784 0.51506 -0.270376 5.93166 1.28557 -4.63462 19.094 4.47987 11.6392 
199.507 35.6076 -198.765 -123.507 -45.7575 -114.981 -148.513 77.4571 73.9152 -155.066 27.9777 1.15833 69.1368 6.90129 30.8891 58.6364 -8.97795 1.13811 -131.011 73.2465 13.7751 -152.634 -23.5002 -3.56752 64.2006 4.09911 16.8983 52.664 -2.38368 10.864 0.410795 12.816 -90.5797 1.24326 0.599946 -1.10986 -10.428 0.550514 -1.13519 -32.9617 0.905745 -0.878259 -12.9491 0.905738 -0.878271 99.2957 -35.196 -87.6137 17.7721 -25.1631 -47.0002 -42.595 -4.41593 -83.2667 -18.5845 -2.48681 10.3766 -85.8478 -33.7177 81.9363 -6.58462 21.7781 -66.7699 15.5376 2.42405 -58.1221 13.3312 0.587744 0.564539 6.3313 1.28324 -4.60123 18.5669 4.39612 11.4634 
199.547 35.7174 -198.714 -122.892 -45.4416 -114.707 -145.959 77.1437 71.7263 -154.981 27.002 1.2822 69.2124 6.94525 30.4132 59.0187 -9.25694 0.437156 -129.256 73.1524 12.4143 -152.502 -23.5945 -3.49235 64.1519 3.99509 16.5203 51.7093 -2.27869 11.5435 0.447228 12.8141 -90.5453 1.24743 0.685692 -1.04007 -10.4238 0.639264 -1.06925 -32.9583 0.966565 -0.78593 -12.9456 0.966564 -0.78593 99.4137 -35.1148 -87.3958 17.7831 -25.0299 -47.2194 -43.7164 -4.38505 -83.5712 -17.1731 -2.33737 10.6904 -85.8898 -33.4858 81.8098 -6.82624 21.6488 -66.765 15.4346 2.24464 -58.0032 13.1468 0.387751 -0.861023 6.84777 1.21115 -4.8976 18.0892 4.41972 11.7922 
199.487 35.6521 -198.709 -123.078 -45.4146 -114.824 -147.463 77.1755 73.3138 -155.095 27.7847 1.22665 69.1916 6.89629 30.7684 58.6658 -9.08361 0.813068 -129.871 72.1259 12.9336 -152.383 -22.7311 -3.46552 65.214 4.34402 19.8745 50.5642 -2.32933 10.2624 0.403154 12.8088 -90.5124 1.25762 0.610121 -0.978524 -10.4136 0.566469 -1.00443 -32.948 0.875983 -0.749935 -12.9353 0.875986 -0.749933 99.2093 -35.2843 -87.7708 17.6489 -25.3294 -47.0954 -42.2196 -4.29022 -83.1617 -18.6839 -2.40756 9.79485 -85.7071 -33.7224 82.1967 -6.52465 21.799 -66.4765 15.1905 2.04304 -58.2564 13.6967 0.517048 -0.0751265 6.20333 1.3268 -4.65975 18.3782 4.39607 11.3159 
199.441 35.5787 -198.637 -123.323 -45.6142 -115.027 -151.332 77.4526 76.8228 -155.298 27.4034 1.15963 69.9934 6.92732 28.7899 57.8315 -8.91229 0.310903 -130.642 70.8658 13.2953 -152.288 -22.4993 -3.43244 66.1607 4.71627 22.5271 48.4361 -2.27002 9.37412 0.386867 12.8084 -90.5255 1.25837 0.572655 -1.00534 -10.4129 0.527881 -1.02957 -32.9469 0.848317 -0.78677 -12.9343 0.848335 -0.786764 99.3579 -35.1364 -87.5003 17.6464 -25.5942 -47.1056 -41.872 -4.32905 -83.1417 -19.5166 -2.59076 10.231 -85.7903 -33.3668 81.9694 -6.80044 21.8347 -66.379 15.5073 2.24469 -58.3461 14.0488 0.609467 0.477904 5.90177 1.30416 -4.83045 18.3094 4.43873 11.5771 
199.296 35.5061 -198.564 -122.774 -45.3114 -114.533 -158.089 78.1696 83.9811 -155.487 27.6424 1.07655 70.2012 6.19803 26.0534 57.1893 -8.7276 0.224448 -129.589 70.4125 12.7675 -152.254 -22.1118 -3.36586 66.0798 5.14998 24.0957 47.5878 -2.18639 10.0002 0.419542 12.7741 -90.5089 1.32708 0.643841 -0.971361 -10.3441 0.600483 -0.998768 -32.8787 0.906005 -0.732977 -12.866 0.906007 -0.732962 99.1938 -35.0978 -87.8155 17.7887 -25.5614 -46.756 -40.8414 -4.41535 -82.9514 -20.9339 -2.75835 10.0661 -85.8316 -33.5544 81.9318 -6.54388 21.8435 -66.3733 15.3629 2.1325 -58.343 13.9397 0.650085 0.794032 5.29863 1.28937 -5.10422 18.7881 4.59955 12.0705 
199.155 35.5645 -198.336 -122.121 -45.1056 -114.249 -161.623 78.1727 87.6919 -155.463 27.7568 1.06901 70.5079 5.87839 24.0822 57.1757 -8.73417 0.15553 -128.927 69.2145 12.1918 -152.08 -21.7908 -3.26297 66.7511 5.52107 26.4654 46.8082 -2.16881 9.40424 0.461606 12.7226 -90.5318 1.43044 0.718694 -1.01484 -10.2407 0.673335 -1.0455 -32.7755 0.990455 -0.751941 -12.7629 0.99047 -0.751951 99.218 -34.6379 -87.8074 18.6226 -25.3863 -46.0674 -42.1547 -4.56477 -83.2138 -20.476 -2.67821 9.96938 -86.2942 -34.1938 81.2162 -6.31599 21.5788 -66.3837 14.4155 1.55971 -58.2267 13.4994 0.470005 -0.35057 4.26073 1.21284 -3.37887 19.5626 3.95881 10.6278 
